<svg width="48" height="48" viewBox="0 0 48 48" fill="none" xmlns="http://www.w3.org/2000/svg">
<path d="M24 13.7778C19.7654 13.7778 16.3333 16.065 16.3333 18.8889C16.3333 21.7128 19.7654 24 24 24C28.2346 24 31.6667 26.2872 31.6667 29.1111C31.6667 31.935 28.2346 34.2222 24 34.2222M24 13.7778C26.8367 13.7778 29.3156 14.8051 30.6419 16.3333M24 13.7778V11.2222M24 13.7778V34.2222M24 34.2222V36.7778M24 34.2222C21.1633 34.2222 18.6844 33.1949 17.3581 31.6667M47 24C47 27.0204 46.4051 30.0112 45.2492 32.8017C44.0934 35.5922 42.3992 38.1277 40.2635 40.2635C38.1277 42.3992 35.5922 44.0934 32.8017 45.2492C30.0112 46.4051 27.0204 47 24 47C20.9796 47 17.9888 46.4051 15.1983 45.2492C12.4078 44.0934 9.87229 42.3992 7.73654 40.2635C5.6008 38.1277 3.90663 35.5922 2.75077 32.8017C1.59491 30.0112 1 27.0204 1 24C1 17.9 3.42321 12.0499 7.73654 7.73654C12.0499 3.42321 17.9 1 24 1C30.1 1 35.9501 3.42321 40.2635 7.73654C44.5768 12.0499 47 17.9 47 24Z" stroke="#F0AD4E" stroke-width="1.33333" stroke-linecap="round" stroke-linejoin="round"/>
</svg>
