<svg width="53" height="52" viewBox="0 0 53 52" fill="none" xmlns="http://www.w3.org/2000/svg">
<path d="M18.0982 26L23.6994 31.6012L34.9018 20.3988M14.8354 5.5471C16.8443 5.38677 18.7515 4.59686 20.2854 3.28981C22.0188 1.81184 24.2221 1 26.5 1C28.7779 1 30.9812 1.81184 32.7146 3.28981C34.2485 4.59686 36.1557 5.38677 38.1646 5.5471C40.4352 5.72775 42.5671 6.71167 44.1777 8.3223C45.7883 9.93293 46.7722 12.0648 46.9529 14.3354C47.1132 16.3443 47.9031 18.2515 49.2102 19.7854C50.6882 21.5188 51.5 23.7221 51.5 26C51.5 28.2779 50.6882 30.4812 49.2102 32.2146C47.9031 33.7485 47.1132 35.6557 46.9529 37.6646C46.7722 39.9352 45.7883 42.0671 44.1777 43.6777C42.5671 45.2883 40.4352 46.2722 38.1646 46.4529C36.1557 46.6132 34.2485 47.4031 32.7146 48.7102C30.9812 50.1882 28.7779 51 26.5 51C24.2221 51 22.0188 50.1882 20.2854 48.7102C18.7515 47.4031 16.8443 46.6132 14.8354 46.4529C12.5648 46.2722 10.4329 45.2883 8.8223 43.6777C7.21167 42.0671 6.22775 39.9352 6.0471 37.6646C5.88677 35.6557 5.09686 33.7485 3.78981 32.2146C2.31184 30.4812 1.5 28.2779 1.5 26C1.5 23.7221 2.31184 21.5188 3.78981 19.7854C5.09686 18.2515 5.88677 16.3443 6.0471 14.3354C6.22775 12.0648 7.21167 9.93293 8.8223 8.3223C10.4329 6.71167 12.5648 5.72775 14.8354 5.5471Z" stroke="#6495ED" stroke-width="1.3443" stroke-linecap="round" stroke-linejoin="round"/>
</svg>
