<svg width="47" height="47" viewBox="0 0 47 47" fill="none" xmlns="http://www.w3.org/2000/svg">
<path d="M16 41V26C16 24.6739 15.4732 23.4021 14.5355 22.4645C13.5979 21.5268 12.3261 21 11 21H6C4.67392 21 3.40215 21.5268 2.46447 22.4645C1.52678 23.4021 1 24.6739 1 26V41C1 42.3261 1.52678 43.5979 2.46447 44.5355C3.40215 45.4732 4.67392 46 6 46H11C12.3261 46 13.5979 45.4732 14.5355 44.5355C15.4732 43.5979 16 42.3261 16 41ZM16 41V16C16 14.6739 16.5268 13.4021 17.4645 12.4645C18.4021 11.5268 19.6739 11 21 11H26C27.3261 11 28.5979 11.5268 29.5355 12.4645C30.4732 13.4021 31 14.6739 31 16V41M16 41C16 42.3261 16.5268 43.5979 17.4645 44.5355C18.4021 45.4732 19.6739 46 21 46H26C27.3261 46 28.5979 45.4732 29.5355 44.5355C30.4732 43.5979 31 42.3261 31 41M31 41V6C31 4.67392 31.5268 3.40215 32.4645 2.46447C33.4021 1.52678 34.6739 1 36 1H41C42.3261 1 43.5979 1.52678 44.5355 2.46447C45.4732 3.40215 46 4.67392 46 6V41C46 42.3261 45.4732 43.5979 44.5355 44.5355C43.5979 45.4732 42.3261 46 41 46H36C34.6739 46 33.4021 45.4732 32.4645 44.5355C31.5268 43.5979 31 42.3261 31 41Z" stroke="#058743" stroke-width="1.33333" stroke-linecap="round" stroke-linejoin="round"/>
</svg>
