<svg width="73" height="93" viewBox="0 0 73 93" fill="none" xmlns="http://www.w3.org/2000/svg">
<path d="M21.7143 46.3571H51.2857M21.7143 66.0714H51.2857M61.1429 90.7143H11.8571C9.24287 90.7143 6.73566 89.6758 4.88709 87.8272C3.03852 85.9786 2 83.4714 2 80.8571V11.8571C2 9.24287 3.03852 6.73566 4.88709 4.88709C6.73566 3.03852 9.24287 2 11.8571 2H39.3881C40.6952 2.00028 41.9486 2.51972 42.8726 3.44407L69.5559 30.1274C70.4803 31.0514 70.9997 32.3048 71 33.6119V80.8571C71 83.4714 69.9615 85.9786 68.1129 87.8272C66.2643 89.6758 63.7571 90.7143 61.1429 90.7143Z" stroke="#A9D6BA" stroke-width="3" stroke-linecap="round" stroke-linejoin="round"/>
</svg>
