<svg width="58" height="45" viewBox="0 0 58 45" fill="none" xmlns="http://www.w3.org/2000/svg">
<path d="M1 16.3571H57M13.4444 31.7143H16.5556M29 31.7143H32.1111M10.3333 44H47.6667C50.142 44 52.516 43.0292 54.2663 41.3012C56.0167 39.5732 57 37.2295 57 34.7857V10.2143C57 7.77051 56.0167 5.42682 54.2663 3.6988C52.516 1.97079 50.142 1 47.6667 1H10.3333C7.85798 1 5.48401 1.97079 3.73367 3.6988C1.98333 5.42682 1 7.77051 1 10.2143V34.7857C1 37.2295 1.98333 39.5732 3.73367 41.3012C5.48401 43.0292 7.85798 44 10.3333 44Z" stroke="#EFBF04" stroke-width="1.33333" stroke-linecap="round" stroke-linejoin="round"/>
</svg>
