<svg width="23" height="21" viewBox="0 0 23 21" fill="none" xmlns="http://www.w3.org/2000/svg">
<path d="M1 6.83333C1 6.21449 1.24583 5.621 1.68342 5.18342C2.121 4.74583 2.71449 4.5 3.33333 4.5H4.41833C4.80238 4.50006 5.18051 4.40532 5.51916 4.22419C5.85781 4.04306 6.14652 3.78114 6.35967 3.46167L7.307 2.03833C7.52015 1.71886 7.80885 1.45694 8.14751 1.27581C8.48616 1.09468 8.86428 0.999943 9.24833 1H13.7517C14.1357 0.999943 14.5138 1.09468 14.8525 1.27581C15.1911 1.45694 15.4799 1.71886 15.693 2.03833L16.6403 3.46167C16.8535 3.78114 17.1422 4.04306 17.4808 4.22419C17.8195 4.40532 18.1976 4.50006 18.5817 4.5H19.6667C20.2855 4.5 20.879 4.74583 21.3166 5.18342C21.7542 5.621 22 6.21449 22 6.83333V17.3333C22 17.9522 21.7542 18.5457 21.3166 18.9832C20.879 19.4208 20.2855 19.6667 19.6667 19.6667H3.33333C2.71449 19.6667 2.121 19.4208 1.68342 18.9832C1.24583 18.5457 1 17.9522 1 17.3333V6.83333Z" stroke="#058743" stroke-width="1.33333" stroke-linecap="round" stroke-linejoin="round"/>
<path d="M15 11.4998C15 12.428 14.6313 13.3183 13.9749 13.9746C13.3185 14.631 12.4283 14.9998 11.5 14.9998C10.5717 14.9998 9.6815 14.631 9.02513 13.9746C8.36875 13.3183 8 12.428 8 11.4998C8 10.5715 8.36875 9.68126 9.02513 9.02488C9.6815 8.3685 10.5717 7.99976 11.5 7.99976C12.4283 7.99976 13.3185 8.3685 13.9749 9.02488C14.6313 9.68126 15 10.5715 15 11.4998Z" stroke="#058743" stroke-width="1.33333" stroke-linecap="round" stroke-linejoin="round"/>
</svg>
