<svg width="25" height="25" viewBox="0 0 25 25" fill="none" xmlns="http://www.w3.org/2000/svg">
<path d="M2 6.66667V4.33333C2 3.71449 2.24583 3.121 2.68342 2.68342C3.121 2.24583 3.71449 2 4.33333 2H6.66667M18.3333 2H20.6667C21.2855 2 21.879 2.24583 22.3166 2.68342C22.7542 3.121 23 3.71449 23 4.33333V6.66667M23 18.3333V20.6667C23 21.2855 22.7542 21.879 22.3166 22.3166C21.879 22.7542 21.2855 23 20.6667 23H18.3333M6.66667 23H4.33333C3.71449 23 3.121 22.7542 2.68342 22.3166C2.24583 21.879 2 21.2855 2 20.6667V18.3333M6.66667 12.5H18.3333" stroke="white" stroke-width="3" stroke-linecap="round" stroke-linejoin="round"/>
</svg>
