<svg width="53" height="54" viewBox="0 0 53 54" fill="none" xmlns="http://www.w3.org/2000/svg">
<path d="M1.5 13.1111V7.55556C1.5 6.08213 2.08532 4.66905 3.12718 3.62718C4.16905 2.58532 5.58213 2 7.05556 2H12.6111M40.3889 2H45.9444C47.4179 2 48.8309 2.58532 49.8728 3.62718C50.9147 4.66905 51.5 6.08213 51.5 7.55556V13.1111M51.5 40.8889V46.4444C51.5 47.9179 50.9147 49.3309 49.8728 50.3728C48.8309 51.4147 47.4179 52 45.9444 52H40.3889M12.6111 52H7.05556C5.58213 52 4.16905 51.4147 3.12718 50.3728C2.08532 49.3309 1.5 47.9179 1.5 46.4444V40.8889M12.6111 27H40.3889" stroke="#FDD36A" stroke-width="3" stroke-linecap="round" stroke-linejoin="round"/>
</svg>
